DBRep_DrawableShape

CASCADE Topology V1, (c) Matra-Datavision
Locations 17
1
              1               0               0               0 
              0               1               0               0 
              0               0               1               0 
1
              1               0               0               0 
              0               1               0               0 
              0               0               1               0 
2  2 -1 0
1
              1               0               0               0 
              0               1               0               0 
              0               0               1               0 
1
              1               0               0               0 
              0               1               0               0 
              0               0               1               0 
1
              1               0               0               0 
              0               1               0               0 
              0               0               1               0 
2  4 1 5 1 6 -1 0
2  6 1 5 -1 4 -1 0
2  5 -1 4 -1 0
2  2 -1 6 1 5 -1 4 -1 0
1
              1               0               0               0 
              0               1               0               0 
              0               0               1            4660 
2  4 1 5 1 6 -1 11 1 0
2  11 -1 6 1 5 -1 4 -1 0
2  2 -1 11 -1 6 1 5 -1 4 -1 0
2  6 -1 0
2  4 1 5 1 0
2  6 -1 11 1 0
Curve2ds 0
Curves 15
1 0 0 0 0 0 1 
1 0 7560 0 0 0 1 
1 0 0 0 0 1 0 
1 0 0 0 0 1 0 
1 5670 7970 0 0 0 1 
1 0 7560 0 0.99739581075776507 0.072122095663259903 0 
1 0 7560 0 0.99739581075776507 0.072122095663259903 0 
1 5290 3990 0 0 0 1 
1 5670 7970 0 -0.095045157177037001 -0.99547296201212432 0 
1 5670 7970 0 -0.095045157177037001 -0.99547296201212432 0 
1 5620 0 0 0 0 1 
1 5290 3990 0 0.082425335856254084 -0.99659724262561744 0 
1 5290 3990 0 0.082425335856254084 -0.99659724262561744 0 
1 5620 0 0 -1 0 0 
1 5620 0 0 -1 0 0 
Polygon3D 0
PolygonOnTriangulations 30
2 1 2 
p 30.5 1 0 4660 
2 4 3 
p 30.5 1 0 4660 
2 4 3 
p 30.5 1 0 4660 
2 1 2 
p 30.5 1 0 4660 
2 1 4 
p 30.5 1 0 7560 
2 1 2 
p 30.5 1 0 7560 
2 2 3 
p 30.5 1 0 7560 
2 1 2 
p 30.5 1 0 7560 
2 4 3 
p 30.5 1 0 4660 
2 1 2 
p 30.5 1 0 4660 
2 1 4 
p 30.5 1 0 5684.80430621847 
2 2 3 
p 30.5 1 0 5684.80430621847 
2 2 3 
p 30.5 1 0 5684.80430621847 
2 2 3 
p 30.5 1 0 5684.80430621847 
2 4 3 
p 30.5 1 0 4660 
2 1 2 
p 30.5 1 0 4660 
2 1 4 
p 30.5 1 0 3998.09954853553 
2 3 4 
p 30.5 1 0 3998.09954853553 
2 2 3 
p 30.5 1 0 3998.09954853553 
2 3 4 
p 30.5 1 0 3998.09954853553 
2 4 3 
p 30.5 1 0 4660 
2 1 2 
p 30.5 1 0 4660 
2 1 4 
p 30.5 1 0 4003.62335890878 
2 4 5 
p 30.5 1 0 4003.62335890878 
2 2 3 
p 30.5 1 0 4003.62335890878 
2 4 5 
p 30.5 1 0 4003.62335890878 
2 1 4 
p 30.5 1 0 5620 
2 5 1 
p 30.5 1 0 5620 
2 2 3 
p 30.5 1 0 5620 
2 5 1 
p 30.5 1 0 5620 
Surfaces 7
1 0 0 0 -1 0 0 0 1 0 0 0 -1 
1 0 7560 0 -0.072122095663259903 0.99739581075776507 0 0.99739581075776507 0.072122095663259903 0 0 0 -1 
1 5670 7970 0 0.99547296201212432 -0.095045157177037001 0 -0.095045157177037001 -0.99547296201212432 0 0 0 -1 
1 5290 3990 0 0.99659724262561744 0.082425335856254084 0 0.082425335856254084 -0.99659724262561744 0 0 0 -1 
1 5620 0 0 0 -1 0 -1 0 0 -0 -0 -1 
1 2816.0681339743874 3893.8850751745313 0 -0 -0 -1 -1 0 0 0 1 0 
1 2816.0681339743874 3893.8850751745313 0 -0 -0 -1 -1 0 0 0 1 0 
Triangulations 7
4 2 1 30.5
0 0 0 0 0 4660 0 7560 4660 0 7560 0 0 0 0 -4660 7560 -4660 7560 0 4 1 2 4 2 3 
4 2 1 30.5
5620 0 0 5620 0 4660 0 0 4660 0 0 0 0 0 0 -4660 5620 -4660 5620 0 4 1 2 4 2 3 
4 2 1 30.5
0 7560 0 0 7560 4660 5670 7970 4660 5670 7970 0 0 0 0 -4660 5684.80430621846 -4660 5684.80430621847 0 3 1 2 4 1 3 
5 3 1 30.5
0 0 0 0 7560 0 5670 7970 0 5290 3990 0 5620 0 0 2816.06813397439 -3893.88507517453 2816.06813397439 3666.11492482547 -2853.93186602561 4076.11492482547 -2473.93186602561 96.1149248254687 -2803.93186602561 -3893.88507517453 1 4 5 2 3 4 2 4 1 
5 3 1 30.5
0 0 0 0 7560 0 5670 7970 0 5290 3990 0 5620 0 0 2816.06813397439 -3893.88507517453 2816.06813397439 3666.11492482547 -2853.93186602561 4076.11492482547 -2473.93186602561 96.1149248254687 -2803.93186602561 -3893.88507517453 1 4 5 2 3 4 2 4 1 
4 2 1 30.5
5670 7970 0 5670 7970 4660 5290 3990 4660 5290 3990 0 0 0 0 -4660 3998.09954853553 -4660 3998.09954853553 0 4 1 2 4 2 3 
4 2 1 30.5
5290 3990 0 5290 3990 4660 5620 0 4660 5620 0 0 0 0 0 -4660 4003.62335890878 -4660 4003.62335890878 0 4 1 2 4 2 3 

TShapes 42
Ve
1e-07
0 0 0
0 0

0101101
*
Ve
1e-07
0 0 4660
0 0

0101101
*
Ed
 1e-07 1 1 0
1  1 0 0 4660
6  1 1 0
6  2 2 0
0

0101000
+42 3 -41 3 *
Ve
1e-07
0 7560 0
0 0

0101101
*
Ve
1e-07
0 7560 4660
0 0

0101101
*
Ed
 1e-07 1 1 0
1  2 0 0 4660
6  3 1 0
6  4 3 0
0

0101000
+39 3 -38 3 *
Ed
 1e-07 1 1 0
1  3 0 0 7560
6  5 1 8
6  6 4 9
0

0101000
+42 10 -39 10 *
Ed
 1e-07 1 1 0
1  4 0 0 7560
6  7 1 13
6  8 5 9
0

0101000
+41 14 -38 14 *
Wi

0101100
+40 0 -37 0 -36 7 +35 12 *
Fa
0  1e-07 1 0
2  1
0111000
+34 0 *
Ve
1e-07
5670 7970 0
0 0

0101101
*
Ve
1e-07
5670 7970 4660
0 0

0101101
*
Ed
 1e-07 1 1 0
1  5 0 0 4660
6  9 3 0
6  10 6 0
0

0101000
+32 3 -31 3 *
Ed
 1e-07 1 1 0
1  6 0 0 5684.80430621847
6  11 3 8
6  12 4 9
0

0101000
+39 10 -32 10 *
Ed
 1e-07 1 1 0
1  7 0 0 5684.80430621847
6  13 3 13
6  14 5 9
0

0101000
+38 14 -31 14 *
Wi

0101100
+37 0 -30 0 -29 7 +28 12 *
Fa
0  1e-07 2 0
2  3
0111000
+27 0 *
Ve
1e-07
5290 3990 0
0 0

0101101
*
Ve
1e-07
5290 3990 4660
0 0

0101101
*
Ed
 1e-07 1 1 0
1  8 0 0 4660
6  15 6 0
6  16 7 0
0

0101000
+25 3 -24 3 *
Ed
 1e-07 1 1 0
1  9 0 0 3998.09954853553
6  17 6 8
6  18 4 9
0

0101000
+32 10 -25 10 *
Ed
 1e-07 1 1 0
1  10 0 0 3998.09954853553
6  19 6 13
6  20 5 9
0

0101000
+31 14 -24 14 *
Wi

0101100
+30 0 -23 0 -22 7 +21 12 *
Fa
0  1e-07 3 0
2  6
0111000
+20 0 *
Ve
1e-07
5620 0 0
0 0

0101101
*
Ve
1e-07
5620 0 4660
0 0

0101101
*
Ed
 1e-07 1 1 0
1  11 0 0 4660
6  21 7 0
6  22 2 0
0

0101000
+18 3 -17 3 *
Ed
 1e-07 1 1 0
1  12 0 0 4003.62335890878
6  23 7 8
6  24 4 9
0

0101000
+25 10 -18 10 *
Ed
 1e-07 1 1 0
1  13 0 0 4003.62335890878
6  25 7 13
6  26 5 9
0

0101000
+24 14 -17 14 *
Wi

0101100
+23 0 -16 0 -15 7 +14 12 *
Fa
0  1e-07 4 0
2  7
0111000
+13 0 *
Ed
 1e-07 1 1 0
1  14 0 0 5620
6  27 2 8
6  28 4 9
0

0101000
+18 10 -42 10 *
Ed
 1e-07 1 1 0
1  15 0 0 5620
6  29 2 13
6  30 5 9
0

0101000
+17 14 -41 14 *
Wi

0101100
+16 0 -40 0 -11 7 +10 12 *
Fa
0  1e-07 5 0
2  2
0111000
+9 0 *
Wi

0101100
+36 0 +29 0 +22 0 +15 0 +11 0 *
Fa
0  1e-07 6 0
2  4
0111000
+7 16 *
Wi

0101100
+35 0 +28 0 +21 0 +14 0 +10 0 *
Fa
0  1e-07 7 0
2  5
0111000
+5 16 *
Sh

0101100
+33 0 +26 0 +19 0 +12 0 +8 0 +6 15 -4 17 *
So

0100000
+3 0 *
Co

1100000
+2 1 *

+1 0 