Point(1) = { 0.756508, 4.082378, 0.15, 0.1 };
Point(2) = { -0.763492, 4.082378, 0.15, 0.1 };
Point(3) = { -0.763492, 4.082378, 0.595, 0.1 };
Point(4) = { 0.756508, 4.082378, 0.595, 0.1 };
Point(5) = { 3.153508, 3.811378, 0.61, 0.1 };
Point(6) = { 3.153508, 3.811378, 0.0, 0.1 };
Point(7) = { 2.868508, 3.815378, 0.0, 0.1 };
Point(8) = { 2.868508, 3.815378, 0.61, 0.1 };
Point(9) = { -2.823492, 4.242378, 0.15, 0.1 };
Point(10) = { -1.303492, 4.242378, 0.15, 0.1 };
Point(11) = { -1.303492, 4.242378, 0.595, 0.1 };
Point(12) = { -2.823492, 4.242378, 0.595, 0.1 };
Point(13) = { 0.756508, 4.242378, 0.15, 0.1 };
Point(14) = { -0.763492, 4.242378, 0.15, 0.1 };
Point(15) = { 0.756508, 4.242378, 0.595, 0.1 };
Point(16) = { -0.763492, 4.242378, 0.595, 0.1 };
Point(17) = { 2.868508, 3.446381, 1.126, 0.1 };
Point(18) = { 3.152049, 3.446381, 1.126, 0.1 };
Point(19) = { 3.152049, 3.446381, 0.916, 0.1 };
Point(20) = { 2.868508, 3.446381, 0.916, 0.1 };
Point(21) = { 2.648655, 2.203378, 2.988, 0.1 };
Point(22) = { -2.584345, 2.203378, 2.988, 0.1 };
Point(23) = { -2.584345, 2.203378, 2.888, 0.1 };
Point(24) = { -1.284345, 2.203378, 2.888, 0.1 };
Point(25) = { 0.015655, 2.203378, 2.888, 0.1 };
Point(26) = { 1.315655, 2.203378, 2.888, 0.1 };
Point(27) = { 2.648655, 2.203378, 2.888, 0.1 };
Point(28) = { -2.584345, 2.003378, 2.988, 0.1 };
Point(29) = { -2.584345, 2.003378, 2.888, 0.1 };
Point(30) = { -1.303492, 4.082378, 0.15, 0.1 };
Point(31) = { -2.823492, 4.082378, 0.15, 0.1 };
Point(32) = { -2.823492, 4.082378, 0.595, 0.1 };
Point(33) = { -1.303492, 4.082378, 0.595, 0.1 };
Point(34) = { 1.260508, 4.337378, 0.45, 0.1 };
Point(35) = { 1.260508, 4.337378, 2.568, 0.1 };
Point(36) = { 2.803508, 4.337378, 2.568, 0.1 };
Point(37) = { 2.803508, 4.337378, 0.45, 0.1 };
Point(38) = { 2.868508, 3.815378, 1.126, 0.1 };
Point(39) = { 3.153508, 3.811378, 1.126, 0.1 };
Point(40) = { 3.153508, 3.811378, 2.988, 0.1 };
Point(41) = { 3.131508, -1.694622, 2.988, 0.1 };
Point(42) = { 3.131508, -1.694622, 0.0, 0.1 };
Point(43) = { 2.648655, 2.003378, 2.988, 0.1 };
Point(44) = { 2.648655, 2.003378, 2.888, 0.1 };
Point(45) = { 1.260508, 4.189378, 2.568, 0.1 };
Point(46) = { 2.803508, 4.189378, 2.568, 0.1 };
Point(47) = { 3.093508, -4.254622, 0.578, 0.1 };
Point(48) = { 3.093508, -3.941622, 0.907, 0.1 };
Point(49) = { 2.901508, -3.941622, 0.907, 0.1 };
Point(50) = { 2.901508, -4.254622, 0.578, 0.1 };
Point(51) = { 2.868508, 4.189378, 0.0, 0.1 };
Point(52) = { 2.868508, 4.189378, 2.988, 0.1 };
Point(53) = { 2.868508, 3.815378, 2.988, 0.1 };
Point(54) = { 1.315655, 2.003378, 2.888, 0.1 };
Point(55) = { 0.015655, 2.003378, 2.888, 0.1 };
Point(56) = { -1.284345, 2.003378, 2.888, 0.1 };
Point(57) = { -1.616492, -4.254622, 0.0, 0.1 };
Point(58) = { 3.093508, -4.254622, 0.0, 0.1 };
Point(59) = { 2.901508, -4.254622, 1.111, 0.1 };
Point(60) = { 3.093508, -4.254622, 1.111, 0.1 };
Point(61) = { 3.093508, -4.254622, 2.988, 0.1 };
Point(62) = { -1.616492, -4.254622, 2.988, 0.1 };
Point(63) = { 3.093508, -3.941622, 1.111, 0.1 };
Point(64) = { 2.901508, -3.941622, 1.111, 0.1 };
Point(65) = { -3.036492, 3.785378, 2.5, 0.1 };
Point(66) = { -2.884492, 3.785378, 2.5, 0.1 };
Point(67) = { -2.884492, 3.785378, 0.0, 0.1 };
Point(68) = { -3.036492, 3.785378, 0.0, 0.1 };
Point(69) = { -2.584345, -0.245622, 2.988, 0.1 };
Point(70) = { 2.648655, -0.245622, 2.988, 0.1 };
Point(71) = { 2.648655, -0.245622, 2.888, 0.1 };
Point(72) = { 1.315655, -0.245622, 2.888, 0.1 };
Point(73) = { 0.015655, -0.245622, 2.888, 0.1 };
Point(74) = { -1.284345, -0.245622, 2.888, 0.1 };
Point(75) = { -2.584345, -0.245622, 2.888, 0.1 };
Point(76) = { 2.488508, -3.694622, 0.0, 0.1 };
Point(77) = { 2.518508, -1.694622, 0.0, 0.1 };
Point(78) = { 2.518508, -1.694622, 2.988, 0.1 };
Point(79) = { 2.488508, -3.694622, 2.988, 0.1 };
Point(80) = { -2.875492, -2.890622, 0.0, 0.1 };
Point(81) = { -3.036492, -2.890622, 0.0, 0.1 };
Point(82) = { -2.884492, 4.189378, 0.0, 0.1 };
Point(83) = { -2.829492, 4.189378, 0.0, 0.1 };
Point(84) = { -2.829492, 4.307378, 0.0, 0.1 };
Point(85) = { -1.297492, 4.307378, 0.0, 0.1 };
Point(86) = { -1.297492, 4.189378, 0.0, 0.1 };
Point(87) = { -0.769492, 4.189378, 0.0, 0.1 };
Point(88) = { -0.769492, 4.307378, 0.0, 0.1 };
Point(89) = { 0.757508, 4.307378, 0.0, 0.1 };
Point(90) = { 0.757508, 4.189378, 0.0, 0.1 };
Point(91) = { 1.260508, 4.189378, 0.0, 0.1 };
Point(92) = { 1.260508, 4.307378, 0.0, 0.1 };
Point(93) = { 2.803508, 4.307378, 0.0, 0.1 };
Point(94) = { 2.803508, 4.189378, 0.0, 0.1 };
Point(95) = { 2.563508, -3.694622, 0.0, 0.1 };
Point(96) = { 3.093508, -3.694622, 0.0, 0.1 };
Point(97) = { -1.616492, -2.890622, 0.0, 0.1 };
Point(98) = { -1.815492, -2.890622, 0.0, 0.1 };
Point(99) = { -1.815492, -2.870622, 0.0, 0.1 };
Point(100) = { -2.875492, -2.870622, 0.0, 0.1 };
Point(101) = { -1.284345, -0.045622, 2.888, 0.1 };
Point(102) = { -2.584345, -0.045622, 2.888, 0.1 };
Point(103) = { -2.584345, -0.045622, 2.988, 0.1 };
Point(104) = { 1.165655, -2.494622, 2.888, 0.1 };
Point(105) = { 2.498655, -2.494622, 2.888, 0.1 };
Point(106) = { 2.498655, -2.294622, 2.888, 0.1 };
Point(107) = { 1.165655, -2.294622, 2.888, 0.1 };
Point(108) = { -3.036492, -2.890622, 2.5, 0.1 };
Point(109) = { -2.884492, -2.890622, 2.5, 0.1 };
Point(110) = { -2.584345, -2.494622, 2.988, 0.1 };
Point(111) = { 2.498655, -2.494622, 2.988, 0.1 };
Point(112) = { -0.084345, -2.494622, 2.888, 0.1 };
Point(113) = { -1.334345, -2.494622, 2.888, 0.1 };
Point(114) = { -2.584345, -2.494622, 2.888, 0.1 };
Point(115) = { 2.498655, -2.294622, 2.988, 0.1 };
Point(116) = { 0.757508, 4.337378, 0.45, 0.1 };
Point(117) = { 0.757508, 4.337378, 2.568, 0.1 };
Point(118) = { 0.757508, 4.189378, 2.568, 0.1 };
Point(119) = { 0.757508, 4.307378, 0.45, 0.1 };
Point(120) = { -0.769492, 4.189378, 2.568, 0.1 };
Point(121) = { -0.769492, 4.337378, 2.568, 0.1 };
Point(122) = { -0.769492, 4.337378, 0.45, 0.1 };
Point(123) = { -0.769492, 4.307378, 0.45, 0.1 };
Point(124) = { -1.297492, 4.337378, 2.568, 0.1 };
Point(125) = { -2.829492, 4.337378, 2.568, 0.1 };
Point(126) = { -2.829492, 4.189378, 2.568, 0.1 };
Point(127) = { -1.297492, 4.189378, 2.568, 0.1 };
Point(128) = { 2.803508, 4.307378, 0.45, 0.1 };
Point(129) = { -0.084345, -2.294622, 2.888, 0.1 };
Point(130) = { -1.334345, -2.294622, 2.888, 0.1 };
Point(131) = { -1.297492, 4.337378, 0.45, 0.1 };
Point(132) = { -1.297492, 4.307378, 0.45, 0.1 };
Point(133) = { 1.575997, 0.832028, 2.863, 0.1 };
Point(134) = { 1.855997, 0.832028, 2.863, 0.1 };
Point(135) = { 1.855997, 1.112028, 2.863, 0.1 };
Point(136) = { 1.575997, 1.112028, 2.863, 0.1 };
Point(137) = { 1.575997, 0.832028, 2.988, 0.1 };
Point(138) = { 1.855997, 0.832028, 2.988, 0.1 };
Point(139) = { 1.575997, 1.112028, 2.988, 0.1 };
Point(140) = { 1.855997, 1.112028, 2.988, 0.1 };
Point(141) = { 0.027997, 0.832028, 2.863, 0.1 };
Point(142) = { 0.307997, 0.832028, 2.863, 0.1 };
Point(143) = { 0.307997, 1.112028, 2.863, 0.1 };
Point(144) = { 0.027997, 1.112028, 2.863, 0.1 };
Point(145) = { -2.584345, -2.294622, 2.888, 0.1 };
Point(146) = { 2.648655, -0.045622, 2.888, 0.1 };
Point(147) = { 1.315655, -0.045622, 2.888, 0.1 };
Point(148) = { -1.616492, -2.880622, 2.988, 0.1 };
Point(149) = { 2.648655, -0.045622, 2.988, 0.1 };
Point(150) = { 1.260508, 4.307378, 0.45, 0.1 };
Point(151) = { -2.884492, 4.189378, 2.988, 0.1 };
Point(152) = { -2.584345, -2.294622, 2.988, 0.1 };
Point(153) = { 0.015655, -0.045622, 2.888, 0.1 };
Point(154) = { 0.027997, 0.832028, 2.988, 0.1 };
Point(155) = { 0.307997, 0.832028, 2.988, 0.1 };
Point(156) = { 0.307997, 1.112028, 2.988, 0.1 };
Point(157) = { 0.027997, 1.112028, 2.988, 0.1 };
Point(158) = { -2.829492, 4.337378, 0.45, 0.1 };
Point(159) = { 3.093508, -3.694622, 2.988, 0.1 };
Point(160) = { -2.884492, -2.880622, 2.988, 0.1 };
Point(161) = { -2.829492, 4.307378, 0.45, 0.1 };
Point(162) = { 3.023508, -3.694622, 0.658, 0.1 };
Point(163) = { 3.023508, -3.694622, 0.78, 0.1 };
Point(164) = { 2.563508, -3.694622, 0.78, 0.1 };
Point(165) = { 2.563508, -3.694622, 0.658, 0.1 };
Point(166) = { -1.514003, 0.832028, 2.863, 0.1 };
Point(167) = { -1.234003, 0.832028, 2.863, 0.1 };
Point(168) = { -1.234003, 1.112028, 2.863, 0.1 };
Point(169) = { -1.514003, 1.112028, 2.863, 0.1 };
Point(170) = { 1.575997, -1.434972, 2.988, 0.1 };
Point(171) = { 1.575997, -1.154972, 2.988, 0.1 };
Point(172) = { 1.855997, -1.154972, 2.988, 0.1 };
Point(173) = { 1.855997, -1.434972, 2.988, 0.1 };
Point(174) = { -1.234003, -1.154972, 2.988, 0.1 };
Point(175) = { -1.234003, -1.434972, 2.988, 0.1 };
Point(176) = { -1.514003, -1.434972, 2.988, 0.1 };
Point(177) = { -1.514003, -1.154972, 2.988, 0.1 };
Point(178) = { -1.514003, 0.832028, 2.988, 0.1 };
Point(179) = { -1.514003, 1.112028, 2.988, 0.1 };
Point(180) = { -1.234003, 1.112028, 2.988, 0.1 };
Point(181) = { -1.234003, 0.832028, 2.988, 0.1 };
Point(182) = { 0.307997, -1.154972, 2.988, 0.1 };
Point(183) = { 0.307997, -1.434972, 2.988, 0.1 };
Point(184) = { 0.027997, -1.434972, 2.988, 0.1 };
Point(185) = { 0.027997, -1.154972, 2.988, 0.1 };
Point(186) = { -1.234003, -1.154972, 2.863, 0.1 };
Point(187) = { -1.234003, -1.434972, 2.863, 0.1 };
Point(188) = { 1.575997, -1.434972, 2.863, 0.1 };
Point(189) = { 1.575997, -1.154972, 2.863, 0.1 };
Point(190) = { 0.027997, -1.154972, 2.863, 0.1 };
Point(191) = { 0.307997, -1.154972, 2.863, 0.1 };
Point(192) = { 0.027997, -1.434972, 2.863, 0.1 };
Point(193) = { 0.307997, -1.434972, 2.863, 0.1 };
Point(194) = { -1.514003, -1.434972, 2.863, 0.1 };
Point(195) = { -1.514003, -1.154972, 2.863, 0.1 };
Point(196) = { 2.786508, 4.082378, 0.15, 0.1 };
Point(197) = { 1.266508, 4.082378, 0.15, 0.1 };
Point(198) = { 1.266508, 4.082378, 0.595, 0.1 };
Point(199) = { 2.786508, 4.082378, 0.595, 0.1 };
Point(200) = { 2.786508, 4.242378, 0.595, 0.1 };
Point(201) = { 1.266508, 4.242378, 0.595, 0.1 };
Point(202) = { 1.266508, 4.242378, 0.15, 0.1 };
Point(203) = { 2.786508, 4.242378, 0.15, 0.1 };
Point(204) = { -1.815492, -2.890622, 2.02, 0.1 };
Point(205) = { -2.875492, -2.890622, 2.02, 0.1 };
Point(206) = { -2.875492, -2.870622, 2.02, 0.1 };
Point(207) = { -1.815492, -2.870622, 2.02, 0.1 };
Point(208) = { 2.563508, -3.999622, 0.658, 0.1 };
Point(209) = { 3.023508, -3.999622, 0.658, 0.1 };
Point(210) = { 2.563508, -3.999622, 0.78, 0.1 };
Point(211) = { 3.023508, -3.999622, 0.78, 0.1 };
Point(212) = { 1.855997, -1.434972, 2.863, 0.1 };
Point(213) = { 1.855997, -1.154972, 2.863, 0.1 };
Point(214) = { -2.866492, -2.890622, 2.5, 0.1 };
Line(1) = { 1, 2 };
Line(2) = { 2, 3 };
Line(3) = { 3, 4 };
Line(4) = { 1, 4 };
Line(5) = { 5, 6 };
Line(6) = { 6, 7 };
Line(7) = { 7, 8 };
Line(8) = { 5, 8 };
Line(9) = { 9, 10 };
Line(10) = { 10, 11 };
Line(11) = { 11, 12 };
Line(12) = { 9, 12 };
Line(13) = { 1, 13 };
Line(14) = { 13, 14 };
Line(15) = { 2, 14 };
Line(16) = { 13, 15 };
Line(17) = { 15, 16 };
Line(18) = { 14, 16 };
Line(19) = { 17, 18 };
Line(20) = { 18, 19 };
Line(21) = { 19, 20 };
Line(22) = { 17, 20 };
Line(23) = { 5, 20 };
Line(24) = { 5, 19 };
Line(25) = { 21, 22 };
Line(26) = { 22, 23 };
Line(27) = { 23, 24 };
Line(28) = { 24, 25 };
Line(29) = { 25, 26 };
Line(30) = { 26, 27 };
Line(31) = { 21, 27 };
Line(32) = { 22, 28 };
Line(33) = { 28, 29 };
Line(34) = { 23, 29 };
Line(35) = { 30, 31 };
Line(36) = { 31, 32 };
Line(37) = { 32, 33 };
Line(38) = { 30, 33 };
Line(39) = { 9, 31 };
Line(40) = { 12, 32 };
Line(41) = { 11, 33 };
Line(42) = { 4, 15 };
Line(43) = { 34, 35 };
Line(44) = { 35, 36 };
Line(45) = { 36, 37 };
Line(46) = { 34, 37 };
Line(47) = { 8, 20 };
Line(48) = { 8, 38 };
Line(49) = { 17, 38 };
Line(50) = { 18, 39 };
Line(51) = { 39, 40 };
Line(52) = { 40, 41 };
Line(53) = { 41, 42 };
Line(54) = { 6, 42 };
Line(55) = { 3, 16 };
Line(56) = { 38, 39 };
Line(57) = { 21, 43 };
Line(58) = { 27, 44 };
Line(59) = { 43, 44 };
Line(60) = { 10, 30 };
Line(61) = { 35, 45 };
Line(62) = { 45, 46 };
Line(63) = { 36, 46 };
Line(64) = { 47, 48 };
Line(65) = { 48, 49 };
Line(66) = { 49, 50 };
Line(67) = { 47, 50 };
Line(68) = { 7, 51 };
Line(69) = { 51, 52 };
Line(70) = { 52, 53 };
Line(71) = { 38, 53 };
Line(72) = { 28, 43 };
Line(73) = { 44, 54 };
Line(74) = { 54, 55 };
Line(75) = { 55, 56 };
Line(76) = { 29, 56 };
Line(77) = { 57, 58 };
Line(78) = { 47, 58 };
Line(79) = { 50, 59 };
Line(80) = { 59, 60 };
Line(81) = { 60, 61 };
Line(82) = { 61, 62 };
Line(83) = { 57, 62 };
Line(84) = { 60, 63 };
Line(85) = { 59, 64 };
Line(86) = { 63, 64 };
Line(87) = { 65, 66 };
Line(88) = { 66, 67 };
Line(89) = { 67, 68 };
Line(90) = { 65, 68 };
Line(91) = { 69, 70 };
Line(92) = { 70, 71 };
Line(93) = { 71, 72 };
Line(94) = { 72, 73 };
Line(95) = { 73, 74 };
Line(96) = { 74, 75 };
Line(97) = { 69, 75 };
Line(98) = { 76, 77 };
Line(99) = { 77, 78 };
Line(100) = { 78, 79 };
Line(101) = { 76, 79 };
Line(102) = { 80, 81 };
Line(103) = { 68, 81 };
Line(104) = { 67, 82 };
Line(105) = { 82, 83 };
Line(106) = { 83, 84 };
Line(107) = { 84, 85 };
Line(108) = { 85, 86 };
Line(109) = { 86, 87 };
Line(110) = { 87, 88 };
Line(111) = { 88, 89 };
Line(112) = { 89, 90 };
Line(113) = { 90, 91 };
Line(114) = { 91, 92 };
Line(115) = { 92, 93 };
Line(116) = { 93, 94 };
Line(117) = { 51, 94 };
Line(118) = { 42, 77 };
Line(119) = { 76, 95 };
Line(120) = { 95, 96 };
Line(121) = { 58, 96 };
Line(122) = { 57, 97 };
Line(123) = { 97, 98 };
Line(124) = { 98, 99 };
Line(125) = { 99, 100 };
Line(126) = { 80, 100 };
Line(127) = { 101, 102 };
Line(128) = { 75, 102 };
Line(129) = { 74, 101 };
Line(130) = { 69, 103 };
Line(131) = { 102, 103 };
Line(132) = { 104, 105 };
Line(133) = { 105, 106 };
Line(134) = { 106, 107 };
Line(135) = { 104, 107 };
Line(136) = { 81, 108 };
Line(137) = { 65, 108 };
Line(138) = { 108, 109 };
Line(139) = { 66, 109 };
Line(140) = { 110, 111 };
Line(141) = { 105, 111 };
Line(142) = { 104, 112 };
Line(143) = { 112, 113 };
Line(144) = { 113, 114 };
Line(145) = { 110, 114 };
Line(146) = { 111, 115 };
Line(147) = { 106, 115 };
Line(148) = { 25, 55 };
Line(149) = { 24, 56 };
Line(150) = { 116, 117 };
Line(151) = { 117, 118 };
Line(152) = { 90, 118 };
Line(153) = { 89, 119 };
Line(154) = { 116, 119 };
Line(155) = { 87, 120 };
Line(156) = { 120, 121 };
Line(157) = { 121, 122 };
Line(158) = { 122, 123 };
Line(159) = { 88, 123 };
Line(160) = { 124, 125 };
Line(161) = { 125, 126 };
Line(162) = { 126, 127 };
Line(163) = { 124, 127 };
Line(164) = { 40, 53 };
Line(165) = { 46, 94 };
Line(166) = { 93, 128 };
Line(167) = { 37, 128 };
Line(168) = { 129, 130 };
Line(169) = { 113, 130 };
Line(170) = { 112, 129 };
Line(171) = { 124, 131 };
Line(172) = { 86, 127 };
Line(173) = { 85, 132 };
Line(174) = { 131, 132 };
Line(175) = { 117, 121 };
Line(176) = { 116, 122 };
Line(177) = { 133, 134 };
Line(178) = { 134, 135 };
Line(179) = { 135, 136 };
Line(180) = { 133, 136 };
Line(181) = { 137, 138 };
Line(182) = { 134, 138 };
Line(183) = { 133, 137 };
Line(184) = { 137, 139 };
Line(185) = { 136, 139 };
Line(186) = { 139, 140 };
Line(187) = { 135, 140 };
Line(188) = { 141, 142 };
Line(189) = { 142, 143 };
Line(190) = { 143, 144 };
Line(191) = { 141, 144 };
Line(192) = { 130, 145 };
Line(193) = { 114, 145 };
Line(194) = { 138, 140 };
Line(195) = { 71, 146 };
Line(196) = { 146, 147 };
Line(197) = { 72, 147 };
Line(198) = { 62, 148 };
Line(199) = { 97, 148 };
Line(200) = { 70, 149 };
Line(201) = { 146, 149 };
Line(202) = { 45, 91 };
Line(203) = { 34, 150 };
Line(204) = { 92, 150 };
Line(205) = { 48, 63 };
Line(206) = { 49, 64 };
Line(207) = { 118, 120 };
Line(208) = { 83, 126 };
Line(209) = { 82, 151 };
Line(210) = { 52, 151 };
Line(211) = { 110, 152 };
Line(212) = { 145, 152 };
Line(213) = { 115, 152 };
Line(214) = { 107, 129 };
Line(215) = { 26, 54 };
Line(216) = { 147, 153 };
Line(217) = { 73, 153 };
Line(218) = { 154, 155 };
Line(219) = { 142, 155 };
Line(220) = { 141, 154 };
Line(221) = { 156, 157 };
Line(222) = { 144, 157 };
Line(223) = { 143, 156 };
Line(224) = { 101, 153 };
Line(225) = { 125, 158 };
Line(226) = { 131, 158 };
Line(227) = { 96, 159 };
Line(228) = { 61, 159 };
Line(229) = { 109, 160 };
Line(230) = { 151, 160 };
Line(231) = { 158, 161 };
Line(232) = { 84, 161 };
Line(233) = { 154, 157 };
Line(234) = { 79, 159 };
Line(235) = { 162, 163 };
Line(236) = { 163, 164 };
Line(237) = { 164, 165 };
Line(238) = { 162, 165 };
Line(239) = { 155, 156 };
Line(240) = { 166, 167 };
Line(241) = { 167, 168 };
Line(242) = { 168, 169 };
Line(243) = { 166, 169 };
Line(244) = { 41, 78 };
Line(245) = { 148, 160 };
Line(246) = { 170, 171 };
Line(247) = { 171, 172 };
Line(248) = { 172, 173 };
Line(249) = { 170, 173 };
Line(250) = { 174, 175 };
Line(251) = { 175, 176 };
Line(252) = { 176, 177 };
Line(253) = { 174, 177 };
Line(254) = { 178, 179 };
Line(255) = { 179, 180 };
Line(256) = { 180, 181 };
Line(257) = { 178, 181 };
Line(258) = { 103, 149 };
Line(259) = { 182, 183 };
Line(260) = { 183, 184 };
Line(261) = { 184, 185 };
Line(262) = { 182, 185 };
Line(263) = { 167, 181 };
Line(264) = { 166, 178 };
Line(265) = { 169, 179 };
Line(266) = { 168, 180 };
Line(267) = { 174, 186 };
Line(268) = { 186, 187 };
Line(269) = { 175, 187 };
Line(270) = { 170, 188 };
Line(271) = { 188, 189 };
Line(272) = { 171, 189 };
Line(273) = { 185, 190 };
Line(274) = { 190, 191 };
Line(275) = { 182, 191 };
Line(276) = { 132, 161 };
Line(277) = { 184, 192 };
Line(278) = { 190, 192 };
Line(279) = { 183, 193 };
Line(280) = { 192, 193 };
Line(281) = { 187, 194 };
Line(282) = { 186, 195 };
Line(283) = { 194, 195 };
Line(284) = { 128, 150 };
Line(285) = { 191, 193 };
Line(286) = { 196, 197 };
Line(287) = { 197, 198 };
Line(288) = { 198, 199 };
Line(289) = { 196, 199 };
Line(290) = { 199, 200 };
Line(291) = { 198, 201 };
Line(292) = { 200, 201 };
Line(293) = { 202, 203 };
Line(294) = { 200, 203 };
Line(295) = { 201, 202 };
Line(296) = { 204, 205 };
Line(297) = { 205, 206 };
Line(298) = { 206, 207 };
Line(299) = { 204, 207 };
Line(300) = { 176, 194 };
Line(301) = { 109, 205 };
Line(302) = { 80, 205 };
Line(303) = { 97, 204 };
Line(304) = { 148, 204 };
Line(305) = { 98, 204 };
Line(306) = { 99, 207 };
Line(307) = { 197, 202 };
Line(308) = { 100, 206 };
Line(309) = { 177, 195 };
Line(310) = { 165, 208 };
Line(311) = { 208, 209 };
Line(312) = { 162, 209 };
Line(313) = { 164, 210 };
Line(314) = { 163, 211 };
Line(315) = { 210, 211 };
Line(316) = { 209, 211 };
Line(317) = { 188, 212 };
Line(318) = { 212, 213 };
Line(319) = { 189, 213 };
Line(320) = { 208, 210 };
Line(321) = { 172, 213 };
Line(322) = { 173, 212 };
Line(323) = { 119, 123 };
Line(324) = { 109, 214 };
Line(325) = { 148, 214 };
Line(326) = { 196, 203 };
Line(327) = { 204, 214 };
Line Loop(1) = { 1, 2, 3, -4 };
Line Loop(2) = { 5, 6, 7, -8 };
Line Loop(3) = { 9, 10, 11, -12 };
Line Loop(4) = { 13, 14, -15, -1 };
Line Loop(5) = { -14, 16, 17, -18 };
Line Loop(6) = { 19, 20, 21, -22 };
Line Loop(7) = { 23, -21, -24 };
Line Loop(8) = { 25, 26, 27, 28, 29, 30, -31 };
Line Loop(9) = { 32, 33, -34, -26 };
Line Loop(10) = { 35, 36, 37, -38 };
Line Loop(11) = { -39, 12, 40, -36 };
Line Loop(12) = { 41, -37, -40, -11 };
Line Loop(13) = { -13, 4, 42, -16 };
Line Loop(14) = { 43, 44, 45, -46 };
Line Loop(15) = { -47, 48, -49, 22 };
Line Loop(16) = { -20, 50, 51, 52, 53, -54, -5, 24 };
Line Loop(17) = { 15, 18, -55, -2 };
Line Loop(18) = { 56, -50, -19, 49 };
Line Loop(19) = { -57, 31, 58, -59 };
Line Loop(20) = { -60, -9, 39, -35 };
Line Loop(21) = { -42, -3, 55, -17 };
Line Loop(22) = { 60, 38, -41, -10 };
Line Loop(23) = { -44, 61, 62, -63 };
Line Loop(24) = { 8, 47, -23 };
Line Loop(25) = { 64, 65, 66, -67 };
Line Loop(26) = { 68, 69, 70, -71, -48, -7 };
Line Loop(27) = { 72, 59, 73, 74, 75, -76, -33 };
Line Loop(28) = { 77, -78, 67, 79, 80, 81, 82, -83 };
Line Loop(29) = { -84, -80, 85, -86 };
Line Loop(30) = { 87, 88, 89, -90 };
Line Loop(31) = { 91, 92, 93, 94, 95, 96, -97 };
Line Loop(32) = { 98, 99, 100, -101 };
Line Loop(33) = { 102, -103, -89, 104, 105, 106, 107, 108, 109, 110, 111, 112, 113, 114, 115, 116, -117, -68, -6, 54, 118, -98, 119, 120, -121, -77, 122, 123, 124, 125, -126 };
Line Loop(34) = { 127, -128, -96, 129 };
Line Loop(35) = { -130, 97, 128, 131 };
Line Loop(36) = { 132, 133, 134, -135 };
Line Loop(37) = { 136, -137, 90, 103 };
Line Loop(38) = { 137, 138, -139, -87 };
Line Loop(39) = { 140, -141, -132, 142, 143, 144, -145 };
Line Loop(40) = { 146, -147, -133, 141 };
Line Loop(41) = { -75, -148, -28, 149 };
Line Loop(42) = { 150, 151, -152, -112, 153, -154 };
Line Loop(43) = { -110, 155, 156, 157, 158, -159 };
Line Loop(44) = { 160, 161, 162, -163 };
Line Loop(45) = { 71, -164, -51, -56 };
Line Loop(46) = { -45, 63, 165, -116, 166, -167 };
Line Loop(47) = { 168, -169, -143, 170 };
Line Loop(48) = { -171, 163, -172, -108, 173, -174 };
Line Loop(49) = { -157, -175, -150, 176 };
Line Loop(50) = { -27, 34, 76, -149 };
Line Loop(51) = { 177, 178, 179, -180 };
Line Loop(52) = { 181, -182, -177, 183 };
Line Loop(53) = { -184, -183, 180, 185 };
Line Loop(54) = { -186, -185, -179, 187 };
Line Loop(55) = { 188, 189, 190, -191 };
Line Loop(56) = { 192, -193, -144, 169 };
Line Loop(57) = { 194, -187, -178, 182 };
Line Loop(58) = { -93, 195, 196, -197 };
Line Loop(59) = { -122, 83, 198, -199 };
Line Loop(60) = { 200, -201, -195, -92 };
Line Loop(61) = { -114, -202, -61, -43, 203, -204 };
Line Loop(62) = { 205, 86, -206, -65 };
Line Loop(63) = { -113, 152, 207, -155, -109, 172, -162, -208, -105, 209, -210, -69, 117, -165, -62, 202 };
Line Loop(64) = { -211, 145, 193, 212 };
Line Loop(65) = { 213, -212, -192, -168, -214, -134, 147 };
Line Loop(66) = { -73, -58, -30, 215 };
Line Loop(67) = { 216, -217, -94, 197 };
Line Loop(68) = { 218, -219, -188, 220 };
Line Loop(69) = { 221, -222, -190, 223 };
Line Loop(70) = { -224, -129, -95, 217 };
Line Loop(71) = { -225, -160, 171, 226 };
Line Loop(72) = { 78, 121, 227, -228, -81, 84, -205, -64 };
Line Loop(73) = { -104, -88, 139, 229, -230, -209 };
Line Loop(74) = { -106, 208, -161, 225, 231, -232 };
Line Loop(75) = { -74, -215, -29, 148 };
Line Loop(76) = { -66, 206, -85, -79 };
Line Loop(77) = { -233, -220, 191, 222 };
Line Loop(78) = { -120, -119, 101, 234, -227 };
Line Loop(79) = { 235, 236, 237, -238 };
Line Loop(80) = { 175, -156, -207, -151 };
Line Loop(81) = { 239, -223, -189, 219 };
Line Loop(82) = { 240, 241, 242, -243 };
Line Loop(83) = { -244, -52, 164, -70, 210, 230, -245, -198, -82, 228, -234, -100 };
Line Loop(84) = { -32, -25, 57, -72 };
Line Loop(85) = { -146, -140, 211, -213 };
Line Loop(86) = { 246, 247, 248, -249 };
Line Loop(87) = { 250, 251, 252, -253 };
Line Loop(88) = { 254, 255, 256, -257 };
Line Loop(89) = { 184, 186, -194, -181 };
Line Loop(90) = { -200, -91, 130, 258 };
Line Loop(91) = { -239, -218, 233, -221 };
Line Loop(92) = { 259, 260, 261, -262 };
Line Loop(93) = { 257, -263, -240, 264 };
Line Loop(94) = { 214, -170, -142, 135 };
Line Loop(95) = { -254, -264, 243, 265 };
Line Loop(96) = { -255, -265, -242, 266 };
Line Loop(97) = { -118, -53, 244, -99 };
Line Loop(98) = { -258, -131, -127, 224, -216, -196, 201 };
Line Loop(99) = { -250, 267, 268, -269 };
Line Loop(100) = { -246, 270, 271, -272 };
Line Loop(101) = { 262, 273, 274, -275 };
Line Loop(102) = { -173, -107, 232, -276 };
Line Loop(103) = { -226, 174, 276, -231 };
Line Loop(104) = { -261, 277, -278, -273 };
Line Loop(105) = { -260, 279, -280, -277 };
Line Loop(106) = { -281, -268, 282, -283 };
Line Loop(107) = { 46, 167, 284, -203 };
Line Loop(108) = { -259, 275, 285, -279 };
Line Loop(109) = { 286, 287, 288, -289 };
Line Loop(110) = { -290, -288, 291, -292 };
Line Loop(111) = { 293, -294, 292, 295 };
Line Loop(112) = { 296, 297, 298, -299 };
Line Loop(113) = { -251, 269, 281, -300 };
Line Loop(114) = { -301, -138, -136, -102, 302 };
Line Loop(115) = { -303, 199, 304 };
Line Loop(116) = { 303, -305, -123 };
Line Loop(117) = { -124, 305, 299, -306 };
Line Loop(118) = { 307, -295, -291, -287 };
Line Loop(119) = { -125, 306, -298, -308 };
Line Loop(120) = { 126, 308, -297, -302 };
Line Loop(121) = { 253, 309, -282, -267 };
Line Loop(122) = { 310, 311, -312, 238 };
Line Loop(123) = { -256, -266, -241, 263 };
Line Loop(124) = { -313, -236, 314, -315 };
Line Loop(125) = { 316, -314, -235, 312 };
Line Loop(126) = { 317, 318, -319, -271 };
Line Loop(127) = { 320, 315, -316, -311 };
Line Loop(128) = { -320, -310, -237, 313 };
Line Loop(129) = { -248, 321, -318, -322 };
Line Loop(130) = { -176, 154, 323, -158 };
Line Loop(131) = { 245, -229, 324, -325 };
Line Loop(132) = { -153, -111, 159, -323 };
Line Loop(133) = { -166, -115, 204, -284 };
Line Loop(134) = { 249, 322, -317, -270 };
Line Loop(135) = { -247, 272, 319, -321 };
Line Loop(136) = { -252, 300, 283, -309 };
Line Loop(137) = { 326, -293, -307, -286 };
Line Loop(138) = { -326, 289, 290, 294 };
Line Loop(139) = { 327, -324, 301, -296 };
Line Loop(140) = { -304, 325, -327 };
Line Loop(141) = { 280, -285, -274, 278 };
Plane Surface(1) = { 1 };
Plane Surface(2) = { 2 };
Plane Surface(3) = { 3 };
Plane Surface(4) = { 4 };
Plane Surface(5) = { 5 };
Plane Surface(6) = { 6 };
Plane Surface(7) = { 7 };
Plane Surface(8) = { 8 };
Plane Surface(9) = { 9 };
Plane Surface(10) = { 10 };
Plane Surface(11) = { 11 };
Plane Surface(12) = { 12 };
Plane Surface(13) = { 13 };
Plane Surface(14) = { 14 };
Plane Surface(15) = { 15 };
Plane Surface(16) = { 16 };
Plane Surface(17) = { 17 };
Plane Surface(18) = { 18 };
Plane Surface(19) = { 19 };
Plane Surface(20) = { 20 };
Plane Surface(21) = { 21 };
Plane Surface(22) = { 22 };
Plane Surface(23) = { 23 };
Plane Surface(24) = { 24 };
Plane Surface(25) = { 25 };
Plane Surface(26) = { 26 };
Plane Surface(27) = { 27 };
Plane Surface(28) = { 28 };
Plane Surface(29) = { 29 };
Plane Surface(30) = { 30 };
Plane Surface(31) = { 31 };
Plane Surface(32) = { 32 };
Plane Surface(33) = { 33 };
Plane Surface(34) = { 34 };
Plane Surface(35) = { 35 };
Plane Surface(36) = { 36 };
Plane Surface(37) = { 37 };
Plane Surface(38) = { 38 };
Plane Surface(39) = { 39 };
Plane Surface(40) = { 40 };
Plane Surface(41) = { 41 };
Plane Surface(42) = { 42 };
Plane Surface(43) = { 43 };
Plane Surface(44) = { 44 };
Plane Surface(45) = { 45 };
Plane Surface(46) = { 46 };
Plane Surface(47) = { 47 };
Plane Surface(48) = { 48 };
Plane Surface(49) = { 49 };
Plane Surface(50) = { 50 };
Plane Surface(51) = { 51 };
Plane Surface(52) = { 52 };
Plane Surface(53) = { 53 };
Plane Surface(54) = { 54 };
Plane Surface(55) = { 55 };
Plane Surface(56) = { 56 };
Plane Surface(57) = { 57 };
Plane Surface(58) = { 58 };
Plane Surface(59) = { 59 };
Plane Surface(60) = { 60 };
Plane Surface(61) = { 61 };
Plane Surface(62) = { 62 };
Plane Surface(63) = { 63 };
Plane Surface(64) = { 64 };
Plane Surface(65) = { 65 };
Plane Surface(66) = { 66 };
Plane Surface(67) = { 67 };
Plane Surface(68) = { 68 };
Plane Surface(69) = { 69 };
Plane Surface(70) = { 70 };
Plane Surface(71) = { 71 };
Plane Surface(72) = { 72 };
Plane Surface(73) = { 73 };
Plane Surface(74) = { 74 };
Plane Surface(75) = { 75 };
Plane Surface(76) = { 76 };
Plane Surface(77) = { 77 };
Plane Surface(78) = { 78, 79 };
Plane Surface(79) = { 80 };
Plane Surface(80) = { 81 };
Plane Surface(81) = { 82 };
Plane Surface(82) = { 83, 84, 85, 86, 87, 88, 89, 90, 91, 92 };
Plane Surface(83) = { 93 };
Plane Surface(84) = { 94 };
Plane Surface(85) = { 95 };
Plane Surface(86) = { 96 };
Plane Surface(87) = { 97 };
Plane Surface(88) = { 98 };
Plane Surface(89) = { 99 };
Plane Surface(90) = { 100 };
Plane Surface(91) = { 101 };
Plane Surface(92) = { 102 };
Plane Surface(93) = { 103 };
Plane Surface(94) = { 104 };
Plane Surface(95) = { 105 };
Plane Surface(96) = { 106 };
Plane Surface(97) = { 107 };
Plane Surface(98) = { 108 };
Plane Surface(99) = { 109 };
Plane Surface(100) = { 110 };
Plane Surface(101) = { 111 };
Plane Surface(102) = { 112 };
Plane Surface(103) = { 113 };
Plane Surface(104) = { 114 };
Plane Surface(105) = { 115 };
Plane Surface(106) = { 116 };
Plane Surface(107) = { 117 };
Plane Surface(108) = { 118 };
Plane Surface(109) = { 119 };
Plane Surface(110) = { 120 };
Plane Surface(111) = { 121 };
Plane Surface(112) = { 122 };
Plane Surface(113) = { 123 };
Plane Surface(114) = { 124 };
Plane Surface(115) = { 125 };
Plane Surface(116) = { 126 };
Plane Surface(117) = { 127 };
Plane Surface(118) = { 128 };
Plane Surface(119) = { 129 };
Plane Surface(120) = { 130 };
Plane Surface(121) = { 131 };
Plane Surface(122) = { 132 };
Plane Surface(123) = { 133 };
Plane Surface(124) = { 134 };
Plane Surface(125) = { 135 };
Plane Surface(126) = { 136 };
Plane Surface(127) = { 137 };
Plane Surface(128) = { 138 };
Plane Surface(129) = { 139 };
Plane Surface(130) = { 140 };
Plane Surface(131) = { 141 };
Surface Loop(1) = { 1, 2, 3, 4, 5, 6, 7, 8, 9, 10, 11, 12, 13, 14, 15, 16, 17, 18, 19, 20, 21, 22, 23, 24, 25, 26, 27, 28, 29, 30, 31, 32, 33, 34, 35, 36, 37, 38, 39, 40, 41, 42, 43, 44, 45, 46, 47, 48, 49, 50, 51, 52, 53, 54, 55, 56, 57, 58, 59, 60, 61, 62, 63, 64, 65, 66, 67, 68, 69, 70, 71, 72, 73, 74, 75, 76, 77, 78, 79, 80, 81, 82, 83, 84, 85, 86, 87, 88, 89, 90, 91, 92, 93, 94, 95, 96, 97, 98, 99, 100, 101, 102, 103, 104, 105, 106, 107, 108, 109, 110, 111, 112, 113, 114, 115, 116, 117, 118, 119, 120, 121, 122, 123, 124, 125, 126, 127, 128, 129, 130, 131 };
Physical Surface("default") = { 1, 2, 3, 4, 5, 6, 7, 8, 9, 10, 11, 12, 13, 14, 15, 16, 17, 18, 19, 20, 21, 22, 23, 24, 25, 26, 27, 28, 29, 30, 31, 32, 33, 34, 35, 36, 37, 38, 39, 40, 41, 42, 43, 44, 45, 46, 47, 48, 49, 50, 51, 52, 53, 54, 55, 56, 57, 58, 59, 60, 61, 62, 63, 64, 65, 66, 67, 68, 69, 70, 71, 72, 73, 74, 75, 76, 77, 78, 79, 80, 81, 82, 83, 84, 85, 86, 87, 88, 89, 90, 91, 92, 93, 94, 95, 96, 97, 98, 99, 100, 101, 102, 103, 104, 105, 106, 107, 108, 109, 110, 111, 112, 113, 114, 115, 116, 117, 118, 119, 120, 121, 122, 123, 124, 125, 126, 127, 128, 129, 130, 131 };
Physical Line ("default") = {1, 2, 3, 4, 5, 6, 7, 8, 9, 10, 11, 12, 13, 14, 15, 16, 17, 18, 19, 20, 21, 22, 23, 24, 25, 26, 27, 28, 29, 30, 31, 32, 33, 34, 35, 36, 37, 38, 39, 40, 41, 42, 43, 44, 45, 46, 47, 48, 49, 50, 51, 52, 53, 54, 55, 56, 57, 58, 59, 60, 61, 62, 63, 64, 65, 66, 67, 68, 69, 70, 71, 72, 73, 74, 75, 76, 77, 78, 79, 80, 81, 82, 83, 84, 85, 86, 87, 88, 89, 90, 91, 92, 93, 94, 95, 96, 97, 98, 99, 100, 101, 102, 103, 104, 105, 106, 107, 108, 109, 110, 111, 112, 113, 114, 115, 116, 117, 118, 119, 120, 121, 122, 123, 124, 125, 126, 127, 128, 129, 130, 131, 132, 133, 134, 135, 136, 137, 138, 139, 140, 141, 142, 143, 144, 145, 146, 147, 148, 149, 150, 151, 152, 153, 154, 155, 156, 157, 158, 159, 160, 161, 162, 163, 164, 165, 166, 167, 168, 169, 170, 171, 172, 173, 174, 175, 176, 177, 178, 179, 180, 181, 182, 183, 184, 185, 186, 187, 188, 189, 190, 191, 192, 193, 194, 195, 196, 197, 198, 199, 200, 201, 202, 203, 204, 205, 206, 207, 208, 209, 210, 211, 212, 213, 214, 215, 216, 217, 218, 219, 220, 221, 222, 223, 224, 225, 226, 227, 228, 229, 230, 231, 232, 233, 234, 235, 236, 237, 238, 239, 240, 241, 242, 243, 244, 245, 246, 247, 248, 249, 250, 251, 252, 253, 254, 255, 256, 257, 258, 259, 260, 261, 262, 263, 264, 265, 266, 267, 268, 269, 270, 271, 272, 273, 274, 275, 276, 277, 278, 279, 280, 281, 282, 283, 284, 285, 286, 287, 288, 289, 290, 291, 292, 293, 294, 295, 296, 297, 298, 299, 300, 301, 302, 303, 304, 305, 306, 307, 308, 309, 310, 311, 312, 313, 314, 315, 316, 317, 318, 319, 320, 321, 322, 323, 324, 325, 326, 327};


//+
Surface Loop(2) = {76, 25, 72, 28, 33, 104, 129, 130, 105, 106, 107, 102, 110, 109, 59, 82, 87, 16, 6, 18, 45, 26, 63, 42, 49, 43, 79, 120, 122, 48, 71, 74, 44, 93, 92, 73, 30, 38, 37, 121, 46, 14, 61, 23, 97, 123, 15, 24, 2, 7, 32, 78, 112, 118, 117, 114, 115, 27, 19, 8, 9, 50, 41, 75, 66, 65, 64, 39, 40, 36, 84, 47, 56, 124, 119, 125, 90, 116, 111, 126, 103, 89, 96, 83, 113, 86, 85, 81, 52, 57, 54, 53, 51, 88, 35, 31, 60, 58, 67, 70, 34, 69, 77, 68, 80, 55, 91, 94, 95, 98, 131, 29, 62};
//+
Volume(1) = {2};
//+
Physical Volume(1) = {1};
