                                                                        S      1
,,,9Hretangulo,22HAutoCAD 2022 - English,62HAutodesk Translation FramewoG      1
rk DWG producer (atf_dwg_producer),32,38,7,99,15,,1.,2,2HMM,1,0.08,15H20G      2
220206.145617,0.01,10000.,,7Hunknown,11,0,15H20220206.145028;           G      3
     186       1                       0                        00000000D      1
     186             -73       1       0                               0D      2
     514       2                                                00010000D      3
     514                       1       1                               0D      4
     510       3                                                00010000D      5
     510             -73       1       1                               0D      6
     510       4                                                00010000D      7
     510             -73       1       1                               0D      8
     510       5                                                00010000D      9
     510             -73       1       1                               0D     10
     510       6                                                00010000D     11
     510             -73       1       1                               0D     12
     510       7                                                00010000D     13
     510             -73       1       1                               0D     14
     510       8                                                00010000D     15
     510             -73       1       1                               0D     16
     508       9                                                00010000D     17
     508                       1       1                               0D     18
     508      10                                                00010000D     19
     508                       1       1                               0D     20
     508      11                                                00010000D     21
     508                       1       1                               0D     22
     508      12                                                00010000D     23
     508                       1       1                               0D     24
     508      13                                                00010000D     25
     508                       1       1                               0D     26
     508      14                                                00010000D     27
     508                       1       1                               0D     28
     126      15                                                00010000D     29
     126       0               3       0                               0D     30
     126      18                                                00010000D     31
     126       0               3       0                               0D     32
     126      21                                                00010000D     33
     126       0               3       0                               0D     34
     126      24                                                00010000D     35
     126       0               3       0                               0D     36
     126      27                                                00010000D     37
     126       0               3       0                               0D     38
     126      30                                                00010000D     39
     126       0               3       0                               0D     40
     126      33                                                00010000D     41
     126       0               3       0                               0D     42
     126      36                                                00010000D     43
     126       0               3       0                               0D     44
     126      39                                                00010000D     45
     126       0               3       0                               0D     46
     126      42                                                00010000D     47
     126       0               3       0                               0D     48
     126      45                                                00010000D     49
     126       0               3       0                               0D     50
     126      48                                                00010000D     51
     126       0               3       0                               0D     52
     128      51                                                00010000D     53
     128       0     -73       6       0                               0D     54
     128      57                                                00010000D     55
     128       0     -73       6       0                               0D     56
     128      63                                                00010000D     57
     128       0     -73       6       0                               0D     58
     128      69                                                00010000D     59
     128       0     -73       6       0                               0D     60
     128      75                                                00010000D     61
     128       0     -73       6       0                               0D     62
     128      81                                                00010000D     63
     128       0     -73       6       0                               0D     64
     502      87                                                00010000D     65
     502                       6       1                               0D     66
     504      93                                                00010001D     67
     504                       3       1                               0D     68
     406      96                                                00000000D     69
     406                       1      15                               0D     70
     406      97                       0                        00000000D     71
     406             -73       1       3                               0D     72
     314      98                                                00000200D     73
     314                       1       0                               0D     74
186,3,1,0,0,1,69;                                                      1P      1
514,6,5,1,7,1,9,1,11,1,13,1,15,1;                                      3P      2
510,53,1,1,17;                                                         5P      3
510,55,1,1,19;                                                         7P      4
510,57,1,1,21;                                                         9P      5
510,59,1,1,23;                                                        11P      6
510,61,1,1,25;                                                        13P      7
510,63,1,1,27;                                                        15P      8
508,4,0,67,1,1,0,0,67,2,1,0,0,67,3,1,0,0,67,4,1,0;                    17P      9
508,4,0,67,5,1,0,0,67,6,1,0,0,67,7,1,0,0,67,8,1,0;                    19P     10
508,4,0,67,9,1,0,0,67,6,0,0,0,67,10,0,0,0,67,4,0,0;                   21P     11
508,4,0,67,11,1,0,0,67,7,0,0,0,67,9,0,0,0,67,3,0,0;                   23P     12
508,4,0,67,12,1,0,0,67,8,0,0,0,67,11,0,0,0,67,2,0,0;                  25P     13
508,4,0,67,10,1,0,0,67,5,0,0,0,67,12,0,0,0,67,1,0,0;                  27P     14
126,1,1,0,0,1,0,-2000.,-2000.,2000.,2000.,1.,1.,                      29P     15
4525.58589654654,652.416966600446,3000.,4525.58589654654,             29P     16
4652.41696660045,3000.,-2000.,2000.,0.,0.,0.;                         29P     17
126,1,1,0,0,1,0,-2500.,-2500.,2500.,2500.,1.,1.,                      31P     18
4525.58589654654,4652.41696660045,3000.,-474.41410345346,             31P     19
4652.41696660045,3000.,-2500.,2500.,0.,0.,0.;                         31P     20
126,1,1,0,0,1,0,-2000.,-2000.,2000.,2000.,1.,1.,                      33P     21
-474.41410345346,4652.41696660045,3000.,-474.41410345346,             33P     22
652.416966600446,3000.,-2000.,2000.,0.,0.,0.;                         33P     23
126,1,1,0,0,1,0,-2500.,-2500.,2500.,2500.,1.,1.,                      35P     24
-474.41410345346,652.416966600446,3000.,4525.58589654654,             35P     25
652.416966600446,3000.,-2500.,2500.,0.,0.,0.;                         35P     26
126,1,1,0,0,1,0,-2000.,-2000.,2000.,2000.,1.,1.,                      37P     27
4525.58589654654,4652.41696660045,0.,4525.58589654654,                37P     28
652.416966600446,0.,-2000.,2000.,0.,0.,0.;                            37P     29
126,1,1,0,0,1,0,-2500.,-2500.,2500.,2500.,1.,1.,                      39P     30
4525.58589654654,652.416966600446,0.,-474.41410345346,                39P     31
652.416966600446,0.,-2500.,2500.,0.,0.,0.;                            39P     32
126,1,1,0,0,1,0,-2000.,-2000.,2000.,2000.,1.,1.,                      41P     33
-474.41410345346,652.416966600446,0.,-474.41410345346,                41P     34
4652.41696660045,0.,-2000.,2000.,0.,0.,0.;                            41P     35
126,1,1,0,0,1,0,-2500.,-2500.,2500.,2500.,1.,1.,                      43P     36
-474.41410345346,4652.41696660045,0.,4525.58589654654,                43P     37
4652.41696660045,0.,-2500.,2500.,0.,0.,0.;                            43P     38
126,1,1,0,0,1,0,-1500.,-1500.,1500.,1500.,1.,1.,                      45P     39
-474.41410345346,652.416966600446,3000.,-474.41410345346,             45P     40
652.416966600446,0.,-1500.,1500.,0.,0.,0.;                            45P     41
126,1,1,0,0,1,0,-1500.,-1500.,1500.,1500.,1.,1.,                      47P     42
4525.58589654654,652.416966600446,3000.,4525.58589654654,             47P     43
652.416966600446,0.,-1500.,1500.,0.,0.,0.;                            47P     44
126,1,1,0,0,1,0,-1500.,-1500.,1500.,1500.,1.,1.,                      49P     45
-474.41410345346,4652.41696660045,3000.,-474.41410345346,             49P     46
4652.41696660045,0.,-1500.,1500.,0.,0.,0.;                            49P     47
126,1,1,0,0,1,0,-1500.,-1500.,1500.,1500.,1.,1.,                      51P     48
4525.58589654654,4652.41696660045,3000.,4525.58589654654,             51P     49
4652.41696660045,0.,-1500.,1500.,0.,0.,0.;                            51P     50
128,1,1,1,1,0,0,1,0,0,-2500.001,-2500.001,2500.001,2500.001,          53P     51
-2000.001,-2000.001,2000.001,2000.001,1.,1.,1.,1.,                    53P     52
-474.41510345346,652.415966600446,3000.,4525.58689654654,             53P     53
652.415966600446,3000.,-474.41510345346,4652.41796660045,3000.,       53P     54
4525.58689654654,4652.41796660045,3000.,-2500.001,2500.001,           53P     55
-2000.001,2000.001;                                                   53P     56
128,1,1,1,1,0,0,1,0,0,-2500.001,-2500.001,2500.001,2500.001,          55P     57
-2000.001,-2000.001,2000.001,2000.001,1.,1.,1.,1.,                    55P     58
4525.58689654654,652.415966600446,0.,-474.41510345346,                55P     59
652.415966600446,0.,4525.58689654654,4652.41796660045,0.,             55P     60
-474.41510345346,4652.41796660045,0.,-2500.001,2500.001,              55P     61
-2000.001,2000.001;                                                   55P     62
128,1,1,1,1,0,0,1,0,0,-1500.001,-1500.001,1500.001,1500.001,          57P     63
-2500.001,-2500.001,2500.001,2500.001,1.,1.,1.,1.,                    57P     64
-474.41510345346,652.416966600446,3000.001,-474.41510345346,          57P     65
652.416966600446,-0.000999999999976353,4525.58689654654,              57P     66
652.416966600446,3000.001,4525.58689654654,652.416966600446,          57P     67
-0.000999999999976353,-1500.001,1500.001,-2500.001,2500.001;          57P     68
128,1,1,1,1,0,0,1,0,0,-1500.001,-1500.001,1500.001,1500.001,          59P     69
-2000.001,-2000.001,2000.001,2000.001,1.,1.,1.,1.,                    59P     70
-474.41410345346,652.415966600446,-0.000999999999976353,              59P     71
-474.41410345346,652.415966600446,3000.001,-474.41410345346,          59P     72
4652.41796660045,-0.000999999999976353,-474.41410345346,              59P     73
4652.41796660045,3000.001,-1500.001,1500.001,-2000.001,2000.001;      59P     74
128,1,1,1,1,0,0,1,0,0,-1500.001,-1500.001,1500.001,1500.001,          61P     75
-2500.001,-2500.001,2500.001,2500.001,1.,1.,1.,1.,                    61P     76
-474.41510345346,4652.41696660045,-0.000999999999976353,              61P     77
-474.41510345346,4652.41696660045,3000.001,4525.58689654654,          61P     78
4652.41696660045,-0.000999999999976353,4525.58689654654,              61P     79
4652.41696660045,3000.001,-1500.001,1500.001,-2500.001,2500.001;      61P     80
128,1,1,1,1,0,0,1,0,0,-1500.001,-1500.001,1500.001,1500.001,          63P     81
-2000.001,-2000.001,2000.001,2000.001,1.,1.,1.,1.,                    63P     82
4525.58589654654,652.415966600446,3000.001,4525.58589654654,          63P     83
652.415966600446,-0.000999999999976353,4525.58589654654,              63P     84
4652.41796660045,3000.001,4525.58589654654,4652.41796660045,          63P     85
-0.000999999999976353,-1500.001,1500.001,-2000.001,2000.001;          63P     86
502,8,4525.58589654654,652.416966600446,3000.,4525.58589654654,       65P     87
4652.41696660045,3000.,-474.41410345346,4652.41696660045,3000.,       65P     88
-474.41410345346,652.416966600446,3000.,4525.58589654654,             65P     89
4652.41696660045,0.,4525.58589654654,652.416966600446,0.,             65P     90
-474.41410345346,652.416966600446,0.,-474.41410345346,                65P     91
4652.41696660045,0.;                                                  65P     92
504,12,29,65,1,65,2,31,65,2,65,3,33,65,3,65,4,35,65,4,65,1,37,        67P     93
65,5,65,6,39,65,6,65,7,41,65,7,65,8,43,65,8,65,5,45,65,4,65,7,        67P     94
47,65,1,65,6,49,65,3,65,8,51,65,2,65,5;                               67P     95
406,1,2H64;                                                           69P     96
406,2,0,1H0;                                                          71P     97
314,100.,100.,100.,;                                                  73P     98
S      1G      3D     74P     98                                        T      1
